<mxfile host="Electron" agent="Mozilla/5.0 (Windows NT 10.0; Win64; x64) AppleWebKit/537.36 (KHTML, like Gecko) draw.io/24.7.8 Chrome/128.0.6613.36 Electron/32.0.1 Safari/537.36" version="24.7.8">
  <diagram name="Página-1" id="LKhUukI4UWOA35mkveG7">
    <mxGraphModel dx="1707" dy="1701" grid="1" gridSize="10" guides="1" tooltips="1" connect="1" arrows="1" fold="1" page="1" pageScale="1" pageWidth="827" pageHeight="1169" math="0" shadow="0">
      <root>
        <mxCell id="0" />
        <mxCell id="1" parent="0" />
        <mxCell id="MN3zIXL0mSyj-bYaPxv7-12" value="&lt;p style=&quot;margin:0px;margin-top:4px;text-align:center;&quot;&gt;&lt;i&gt;&amp;lt;&amp;lt;Interface&amp;gt;&amp;gt;&lt;/i&gt;&lt;br&gt;&lt;b&gt;ReprodutorMusical&lt;/b&gt;&lt;/p&gt;&lt;p style=&quot;margin:0px;margin-left:4px;&quot;&gt;&lt;br&gt;&lt;/p&gt;&lt;hr size=&quot;1&quot; style=&quot;border-style:solid;&quot;&gt;&lt;p style=&quot;margin:0px;margin-left:4px;&quot;&gt;+ Tocar():&amp;nbsp; void&lt;br&gt;+ Pausar(): void&lt;/p&gt;&lt;p style=&quot;margin:0px;margin-left:4px;&quot;&gt;&lt;span style=&quot;background-color: initial;&quot;&gt;+SelecionarMusica(String música): void&lt;/span&gt;&lt;/p&gt;" style="verticalAlign=top;align=left;overflow=fill;html=1;whiteSpace=wrap;" parent="1" vertex="1">
          <mxGeometry x="-390" y="-330" width="230" height="120" as="geometry" />
        </mxCell>
        <mxCell id="MN3zIXL0mSyj-bYaPxv7-13" value="&lt;p style=&quot;margin: 4px 0px 0px;&quot;&gt;&lt;/p&gt;&lt;div style=&quot;height:2px;&quot;&gt;&lt;b&gt;Iphone&lt;/b&gt;&lt;/div&gt;" style="verticalAlign=top;align=center;overflow=fill;html=1;whiteSpace=wrap;" parent="1" vertex="1">
          <mxGeometry x="-80" y="-490" width="140" height="30" as="geometry" />
        </mxCell>
        <mxCell id="MN3zIXL0mSyj-bYaPxv7-15" value="" style="edgeStyle=elbowEdgeStyle;elbow=vertical;endArrow=classic;html=1;curved=0;rounded=0;endSize=8;startSize=8;entryX=0.071;entryY=0.95;entryDx=0;entryDy=0;entryPerimeter=0;" parent="1" target="MN3zIXL0mSyj-bYaPxv7-13" edge="1">
          <mxGeometry width="50" height="50" relative="1" as="geometry">
            <mxPoint x="-240" y="-330" as="sourcePoint" />
            <mxPoint x="-190" y="-390" as="targetPoint" />
          </mxGeometry>
        </mxCell>
        <mxCell id="MN3zIXL0mSyj-bYaPxv7-16" value="&lt;p style=&quot;margin:0px;margin-top:4px;text-align:center;&quot;&gt;&lt;i&gt;&amp;lt;&amp;lt;Interface&amp;gt;&amp;gt;&lt;/i&gt;&lt;br&gt;&lt;b&gt;AparelhoTelefonico&lt;/b&gt;&lt;/p&gt;&lt;hr size=&quot;1&quot; style=&quot;border-style:solid;&quot;&gt;&lt;p style=&quot;margin:0px;margin-left:4px;&quot;&gt;&lt;span style=&quot;background-color: initial;&quot;&gt;+ Ligar(String numero): void&lt;/span&gt;&lt;br&gt;&lt;/p&gt;&lt;p style=&quot;margin:0px;margin-left:4px;&quot;&gt;+ Atender(): void&lt;/p&gt;&lt;p style=&quot;margin:0px;margin-left:4px;&quot;&gt;+iniciarCorreioVoz(): void&lt;/p&gt;" style="verticalAlign=top;align=left;overflow=fill;html=1;whiteSpace=wrap;" parent="1" vertex="1">
          <mxGeometry x="-100" y="-330" width="190" height="115" as="geometry" />
        </mxCell>
        <mxCell id="MN3zIXL0mSyj-bYaPxv7-20" value="" style="edgeStyle=elbowEdgeStyle;elbow=vertical;endArrow=classic;html=1;curved=0;rounded=0;endSize=8;startSize=8;entryX=0.5;entryY=1;entryDx=0;entryDy=0;" parent="1" target="MN3zIXL0mSyj-bYaPxv7-13" edge="1">
          <mxGeometry width="50" height="50" relative="1" as="geometry">
            <mxPoint x="-16" y="-330" as="sourcePoint" />
            <mxPoint x="-20" y="-440" as="targetPoint" />
            <Array as="points">
              <mxPoint x="-10" y="-400" />
            </Array>
          </mxGeometry>
        </mxCell>
        <mxCell id="MN3zIXL0mSyj-bYaPxv7-21" value="&lt;p style=&quot;margin:0px;margin-top:4px;text-align:center;&quot;&gt;&lt;i&gt;&amp;lt;&amp;lt;Interface&amp;gt;&amp;gt;&lt;/i&gt;&lt;br&gt;&lt;b&gt;NavegadorInternet&lt;/b&gt;&lt;/p&gt;&lt;hr size=&quot;1&quot; style=&quot;border-style:solid;&quot;&gt;&lt;p style=&quot;margin:0px;margin-left:4px;&quot;&gt;+ exibirPagina(String url): void&lt;br&gt;+ adicionarNovaAba(): void&lt;/p&gt;&lt;p style=&quot;margin:0px;margin-left:4px;&quot;&gt;+ atualizarPagina(): void&lt;/p&gt;" style="verticalAlign=top;align=left;overflow=fill;html=1;whiteSpace=wrap;" parent="1" vertex="1">
          <mxGeometry x="150" y="-355" width="190" height="140" as="geometry" />
        </mxCell>
        <mxCell id="MN3zIXL0mSyj-bYaPxv7-22" value="" style="edgeStyle=elbowEdgeStyle;elbow=vertical;endArrow=classic;html=1;curved=0;rounded=0;endSize=8;startSize=8;entryX=0.871;entryY=1.1;entryDx=0;entryDy=0;entryPerimeter=0;" parent="1" target="MN3zIXL0mSyj-bYaPxv7-13" edge="1">
          <mxGeometry width="50" height="50" relative="1" as="geometry">
            <mxPoint x="230" y="-360" as="sourcePoint" />
            <mxPoint x="40" y="-440" as="targetPoint" />
            <Array as="points">
              <mxPoint x="420" y="-440" />
            </Array>
          </mxGeometry>
        </mxCell>
      </root>
    </mxGraphModel>
  </diagram>
</mxfile>
